<svg width="1273" height="219" viewBox="0 0 1273 219" fill="none" xmlns="http://www.w3.org/2000/svg">
<path d="M193.807 75.36C204.047 75.36 211.599 77.856 216.463 82.848C221.327 87.712 224.527 94.048 226.063 101.856L222.799 100.128L224.335 97.056C225.871 94.112 228.239 90.976 231.439 87.648C234.639 84.192 238.479 81.312 242.959 79.008C247.567 76.576 252.687 75.36 258.319 75.36C267.535 75.36 274.511 77.344 279.247 81.312C284.111 85.28 287.439 90.592 289.231 97.248C291.023 103.776 291.919 111.072 291.919 119.136V168.288C291.919 171.616 290.831 174.432 288.655 176.736C286.479 178.912 283.727 180 280.399 180C277.071 180 274.319 178.912 272.143 176.736C269.967 174.432 268.879 171.616 268.879 168.288V119.136C268.879 114.912 268.367 111.136 267.343 107.808C266.319 104.352 264.463 101.6 261.775 99.552C259.087 97.504 255.247 96.48 250.255 96.48C245.391 96.48 241.231 97.504 237.775 99.552C234.319 101.6 231.695 104.352 229.903 107.808C228.239 111.136 227.407 114.912 227.407 119.136V168.288C227.407 171.616 226.319 174.432 224.143 176.736C221.967 178.912 219.215 180 215.887 180C212.559 180 209.807 178.912 207.631 176.736C205.455 174.432 204.367 171.616 204.367 168.288V119.136C204.367 114.912 203.855 111.136 202.831 107.808C201.807 104.352 199.951 101.6 197.263 99.552C194.575 97.504 190.735 96.48 185.743 96.48C180.879 96.48 176.719 97.504 173.263 99.552C169.807 101.6 167.183 104.352 165.391 107.808C163.727 111.136 162.895 114.912 162.895 119.136V168.288C162.895 171.616 161.807 174.432 159.631 176.736C157.455 178.912 154.703 180 151.375 180C148.047 180 145.295 178.912 143.119 176.736C140.943 174.432 139.855 171.616 139.855 168.288V88.992C139.855 85.664 140.943 82.912 143.119 80.736C145.295 78.432 148.047 77.28 151.375 77.28C154.703 77.28 157.455 78.432 159.631 80.736C161.807 82.912 162.895 85.664 162.895 88.992V97.248L160.015 96.672C161.167 94.496 162.767 92.192 164.815 89.76C166.863 87.2 169.359 84.832 172.303 82.656C175.247 80.48 178.511 78.752 182.095 77.472C185.679 76.064 189.583 75.36 193.807 75.36Z" fill="#333333"/>
<path d="M400.951 75.36C404.279 75.36 407.031 76.448 409.207 78.624C411.383 80.8 412.471 83.616 412.471 87.072V168.288C412.471 171.616 411.383 174.432 409.207 176.736C407.031 178.912 404.279 180 400.951 180C397.623 180 394.871 178.912 392.695 176.736C390.519 174.432 389.431 171.616 389.431 168.288V158.88L393.655 160.608C393.655 162.272 392.759 164.32 390.967 166.752C389.175 169.056 386.743 171.36 383.671 173.664C380.599 175.968 376.951 177.952 372.727 179.616C368.631 181.152 364.151 181.92 359.287 181.92C350.455 181.92 342.455 179.68 335.287 175.2C328.119 170.592 322.423 164.32 318.199 156.384C314.103 148.32 312.055 139.104 312.055 128.736C312.055 118.24 314.103 109.024 318.199 101.088C322.423 93.024 328.055 86.752 335.095 82.272C342.135 77.664 349.943 75.36 358.519 75.36C364.023 75.36 369.079 76.192 373.687 77.856C378.295 79.52 382.263 81.632 385.591 84.192C389.047 86.752 391.671 89.376 393.463 92.064C395.383 94.624 396.343 96.8 396.343 98.592L389.431 101.088V87.072C389.431 83.744 390.519 80.992 392.695 78.816C394.871 76.512 397.623 75.36 400.951 75.36ZM362.167 160.8C367.799 160.8 372.727 159.392 376.951 156.576C381.175 153.76 384.439 149.92 386.743 145.056C389.175 140.192 390.391 134.752 390.391 128.736C390.391 122.592 389.175 117.088 386.743 112.224C384.439 107.36 381.175 103.52 376.951 100.704C372.727 97.888 367.799 96.48 362.167 96.48C356.663 96.48 351.799 97.888 347.575 100.704C343.351 103.52 340.023 107.36 337.591 112.224C335.287 117.088 334.135 122.592 334.135 128.736C334.135 134.752 335.287 140.192 337.591 145.056C340.023 149.92 343.351 153.76 347.575 156.576C351.799 159.392 356.663 160.8 362.167 160.8Z" fill="#333333"/>
<path d="M459.113 168.288C459.113 171.616 458.025 174.432 455.849 176.736C453.673 178.912 450.922 180 447.594 180C444.266 180 441.513 178.912 439.337 176.736C437.161 174.432 436.073 171.616 436.073 168.288V88.992C436.073 85.664 437.161 82.912 439.337 80.736C441.513 78.432 444.266 77.28 447.594 77.28C450.922 77.28 453.673 78.432 455.849 80.736C458.025 82.912 459.113 85.664 459.113 88.992V168.288ZM447.401 64.8C443.049 64.8 439.977 64.096 438.185 62.688C436.393 61.28 435.497 58.784 435.497 55.2V51.552C435.497 47.84 436.457 45.344 438.378 44.064C440.426 42.656 443.497 41.952 447.594 41.952C452.074 41.952 455.21 42.656 457.001 44.064C458.793 45.472 459.69 47.968 459.69 51.552V55.2C459.69 58.912 458.73 61.472 456.81 62.88C454.889 64.16 451.753 64.8 447.401 64.8Z" fill="#333333"/>
<path d="M507.753 168.288C507.753 171.616 506.601 174.432 504.297 176.736C502.121 178.912 499.368 180 496.04 180C492.84 180 490.152 178.912 487.977 176.736C485.801 174.432 484.712 171.616 484.712 168.288V49.632C484.712 46.304 485.801 43.552 487.977 41.376C490.28 39.072 493.096 37.92 496.424 37.92C499.753 37.92 502.44 39.072 504.488 41.376C506.664 43.552 507.753 46.304 507.753 49.632V168.288Z" fill="#333333"/>
<path d="M557.391 0.543991C559.78 0.543991 562.255 1.22666 564.815 2.592C567.545 3.78666 569.593 5.40799 570.958 7.45599L633.167 103.2L620.367 102.688L684.11 7.45599C687.353 2.84799 691.535 0.543991 696.655 0.543991C700.751 0.543991 704.42 1.99466 707.662 4.896C710.905 7.79732 712.526 11.552 712.526 16.16V164.384C712.526 168.821 711.076 172.576 708.174 175.648C705.273 178.549 701.433 180 696.655 180C691.876 180 687.951 178.549 684.879 175.648C681.977 172.576 680.526 168.821 680.526 164.384V43.808L690.51 46.112L638.286 125.728C636.75 127.605 634.788 129.227 632.398 130.592C630.18 131.957 627.876 132.555 625.487 132.384C623.268 132.555 620.964 131.957 618.575 130.592C616.356 129.227 614.479 127.605 612.943 125.728L564.047 48.416L570.703 34.848V164.384C570.703 168.821 569.337 172.576 566.607 175.648C563.876 178.549 560.292 180 555.854 180C551.588 180 548.089 178.549 545.359 175.648C542.628 172.576 541.263 168.821 541.263 164.384V16.16C541.263 11.8933 542.798 8.22399 545.87 5.15199C549.113 2.07999 552.953 0.543991 557.391 0.543991Z" fill="#333333"/>
<path d="M828.388 75.36C831.716 75.36 834.469 76.448 836.645 78.624C838.821 80.8 839.909 83.616 839.909 87.072V168.288C839.909 171.616 838.821 174.432 836.645 176.736C834.469 178.912 831.716 180 828.388 180C825.06 180 822.309 178.912 820.133 176.736C817.956 174.432 816.869 171.616 816.869 168.288V158.88L821.093 160.608C821.093 162.272 820.196 164.32 818.404 166.752C816.612 169.056 814.181 171.36 811.109 173.664C808.036 175.968 804.388 177.952 800.164 179.616C796.068 181.152 791.589 181.92 786.724 181.92C777.892 181.92 769.892 179.68 762.724 175.2C755.556 170.592 749.86 164.32 745.636 156.384C741.54 148.32 739.492 139.104 739.492 128.736C739.492 118.24 741.54 109.024 745.636 101.088C749.86 93.024 755.493 86.752 762.533 82.272C769.573 77.664 777.38 75.36 785.956 75.36C791.461 75.36 796.516 76.192 801.125 77.856C805.732 79.52 809.701 81.632 813.029 84.192C816.484 86.752 819.109 89.376 820.901 92.064C822.82 94.624 823.781 96.8 823.781 98.592L816.869 101.088V87.072C816.869 83.744 817.956 80.992 820.133 78.816C822.309 76.512 825.06 75.36 828.388 75.36ZM789.604 160.8C795.237 160.8 800.164 159.392 804.388 156.576C808.612 153.76 811.876 149.92 814.18 145.056C816.612 140.192 817.828 134.752 817.828 128.736C817.828 122.592 816.612 117.088 814.18 112.224C811.876 107.36 808.612 103.52 804.388 100.704C800.164 97.888 795.237 96.48 789.604 96.48C784.1 96.48 779.237 97.888 775.013 100.704C770.789 103.52 767.461 107.36 765.029 112.224C762.724 117.088 761.573 122.592 761.573 128.736C761.573 134.752 762.724 140.192 765.029 145.056C767.461 149.92 770.789 153.76 775.013 156.576C779.237 159.392 784.1 160.8 789.604 160.8Z" fill="#333333"/>
<path d="M907.479 75.36C912.855 75.36 917.783 76.192 922.263 77.856C926.743 79.52 930.583 81.632 933.783 84.192C937.111 86.752 939.671 89.376 941.463 92.064C943.383 94.624 944.343 96.8 944.343 98.592L939.351 101.088V87.072C939.351 83.744 940.439 80.992 942.615 78.816C944.791 76.512 947.543 75.36 950.871 75.36C954.199 75.36 956.951 76.448 959.127 78.624C961.303 80.8 962.391 83.616 962.391 87.072V172.512C962.391 183.648 959.959 192.544 955.095 199.2C950.359 205.984 944.087 210.848 936.279 213.792C928.471 216.864 920.087 218.4 911.127 218.4C908.567 218.4 905.239 218.08 901.143 217.44C897.047 216.8 893.143 216.032 889.431 215.136C885.719 214.24 882.903 213.408 880.983 212.64C877.143 210.976 874.455 208.864 872.919 206.304C871.511 203.872 871.255 201.248 872.151 198.432C873.303 194.72 875.159 192.16 877.719 190.752C880.279 189.472 882.967 189.344 885.783 190.368C887.063 190.752 889.175 191.52 892.119 192.672C895.063 193.824 898.263 194.848 901.719 195.744C905.303 196.768 908.439 197.28 911.127 197.28C920.727 197.28 927.831 195.36 932.439 191.52C937.047 187.68 939.351 182.368 939.351 175.584V158.88L941.655 160.608C941.655 162.272 940.759 164.32 938.967 166.752C937.303 169.056 934.935 171.36 931.863 173.664C928.919 175.968 925.399 177.952 921.303 179.616C917.207 181.152 912.855 181.92 908.247 181.92C899.159 181.92 890.967 179.68 883.671 175.2C876.375 170.592 870.615 164.32 866.391 156.384C862.167 148.32 860.055 139.104 860.055 128.736C860.055 118.24 862.167 109.024 866.391 101.088C870.615 93.024 876.311 86.752 883.479 82.272C890.647 77.664 898.647 75.36 907.479 75.36ZM911.127 96.48C905.367 96.48 900.311 97.888 895.959 100.704C891.607 103.52 888.215 107.36 885.783 112.224C883.351 117.088 882.135 122.592 882.135 128.736C882.135 134.752 883.351 140.192 885.783 145.056C888.215 149.92 891.607 153.76 895.959 156.576C900.311 159.392 905.367 160.8 911.127 160.8C917.015 160.8 922.135 159.392 926.487 156.576C930.839 153.76 934.231 149.92 936.663 145.056C939.095 140.192 940.311 134.752 940.311 128.736C940.311 122.592 939.095 117.088 936.663 112.224C934.231 107.36 930.839 103.52 926.487 100.704C922.135 97.888 917.015 96.48 911.127 96.48Z" fill="#333333"/>
<path d="M1042.2 75.36C1051.68 75.36 1058.84 77.344 1063.71 81.312C1068.7 85.28 1072.09 90.592 1073.88 97.248C1075.8 103.776 1076.76 111.072 1076.76 119.136V168.288C1076.76 171.616 1075.68 174.432 1073.5 176.736C1071.32 178.912 1068.57 180 1065.24 180C1061.92 180 1059.16 178.912 1056.99 176.736C1054.81 174.432 1053.72 171.616 1053.72 168.288V119.136C1053.72 114.912 1053.15 111.136 1052 107.808C1050.97 104.352 1049.05 101.6 1046.24 99.552C1043.42 97.504 1039.39 96.48 1034.14 96.48C1029.02 96.48 1024.67 97.504 1021.08 99.552C1017.63 101.6 1014.94 104.352 1013.02 107.808C1011.23 111.136 1010.33 114.912 1010.33 119.136V168.288C1010.33 171.616 1009.24 174.432 1007.07 176.736C1004.89 178.912 1002.14 180 998.812 180C995.484 180 992.733 178.912 990.557 176.736C988.38 174.432 987.292 171.616 987.292 168.288V88.992C987.292 85.664 988.38 82.912 990.557 80.736C992.733 78.432 995.484 77.28 998.812 77.28C1002.14 77.28 1004.89 78.432 1007.07 80.736C1009.24 82.912 1010.33 85.664 1010.33 88.992V97.248L1007.45 96.672C1008.6 94.496 1010.27 92.192 1012.44 89.76C1014.62 87.2 1017.18 84.832 1020.12 82.656C1023.07 80.48 1026.4 78.752 1030.11 77.472C1033.82 76.064 1037.85 75.36 1042.2 75.36Z" fill="#333333"/>
<path d="M1150.05 181.92C1139.17 181.92 1129.7 179.68 1121.64 175.2C1113.7 170.592 1107.56 164.384 1103.2 156.576C1098.98 148.768 1096.87 139.936 1096.87 130.08C1096.87 118.56 1099.17 108.768 1103.78 100.704C1108.52 92.512 1114.66 86.24 1122.21 81.888C1129.76 77.536 1137.76 75.36 1146.21 75.36C1152.74 75.36 1158.88 76.704 1164.64 79.392C1170.53 82.08 1175.72 85.792 1180.2 90.528C1184.68 95.136 1188.2 100.512 1190.76 106.656C1193.44 112.8 1194.79 119.328 1194.79 126.24C1194.66 129.312 1193.44 131.808 1191.14 133.728C1188.84 135.648 1186.15 136.608 1183.08 136.608H1109.73L1103.97 117.408H1174.44L1170.21 121.248V116.064C1169.96 112.352 1168.61 109.024 1166.18 106.08C1163.88 103.136 1160.93 100.832 1157.35 99.168C1153.89 97.376 1150.18 96.48 1146.21 96.48C1142.37 96.48 1138.79 96.992 1135.46 98.016C1132.13 99.04 1129.25 100.768 1126.82 103.2C1124.39 105.632 1122.47 108.896 1121.06 112.992C1119.65 117.088 1118.95 122.272 1118.95 128.544C1118.95 135.456 1120.36 141.344 1123.17 146.208C1126.12 150.944 1129.83 154.592 1134.31 157.152C1138.92 159.584 1143.78 160.8 1148.9 160.8C1153.64 160.8 1157.41 160.416 1160.23 159.648C1163.04 158.88 1165.28 157.984 1166.95 156.96C1168.74 155.808 1170.34 154.848 1171.75 154.08C1174.05 152.928 1176.23 152.352 1178.28 152.352C1181.09 152.352 1183.4 153.312 1185.19 155.232C1187.11 157.152 1188.07 159.392 1188.07 161.952C1188.07 165.408 1186.28 168.544 1182.69 171.36C1179.36 174.176 1174.69 176.672 1168.68 178.848C1162.66 180.896 1156.45 181.92 1150.05 181.92Z" fill="#333333"/>
<path d="M1216.07 79.2H1261.57C1264.65 79.2 1267.21 80.224 1269.25 82.272C1271.3 84.32 1272.33 86.88 1272.33 89.952C1272.33 92.896 1271.3 95.392 1269.25 97.44C1267.21 99.36 1264.65 100.32 1261.57 100.32H1216.07C1213 100.32 1210.44 99.296 1208.39 97.248C1206.34 95.2 1205.32 92.64 1205.32 89.568C1205.32 86.624 1206.34 84.192 1208.39 82.272C1210.44 80.224 1213 79.2 1216.07 79.2ZM1236.61 55.2C1239.94 55.2 1242.63 56.352 1244.68 58.656C1246.85 60.832 1247.94 63.584 1247.94 66.912V152.352C1247.94 154.144 1248.26 155.616 1248.9 156.768C1249.67 157.92 1250.63 158.752 1251.78 159.264C1253.06 159.776 1254.41 160.032 1255.81 160.032C1257.35 160.032 1258.76 159.776 1260.04 159.264C1261.32 158.624 1262.79 158.304 1264.45 158.304C1266.25 158.304 1267.85 159.136 1269.25 160.8C1270.79 162.464 1271.56 164.768 1271.56 167.712C1271.56 171.296 1269.57 174.24 1265.61 176.544C1261.77 178.848 1257.61 180 1253.13 180C1250.44 180 1247.43 179.808 1244.1 179.424C1240.9 178.912 1237.83 177.824 1234.89 176.16C1232.07 174.368 1229.7 171.68 1227.78 168.096C1225.86 164.512 1224.9 159.584 1224.9 153.312V66.912C1224.9 63.584 1225.99 60.832 1228.17 58.656C1230.47 56.352 1233.29 55.2 1236.61 55.2Z" fill="#333333"/>
<path d="M85.7998 29.4404H32V72.96H89.8564C94.2936 72.9601 97.963 74.4113 100.864 77.3125C103.936 80.0431 105.472 83.6272 105.472 88.0645C105.472 92.331 103.936 95.8299 100.864 98.5605C97.963 101.12 94.2936 102.4 89.8564 102.4H32V149.761H85.7998V179.2H15.6162C11.1789 179.2 7.42356 177.75 4.35156 174.849C1.45024 171.777 0 168.021 0 163.584V15.6162C6.65105e-06 11.179 1.45043 7.50968 4.35156 4.6084C7.42356 1.5364 11.1789 0 15.6162 0H85.7998V29.4404Z" fill="#333333"/>
<path d="M101.8 149.765C106.047 149.86 109.575 151.395 112.384 154.368C115.456 157.27 116.992 160.683 116.992 164.608C116.992 168.875 115.456 172.374 112.384 175.104C109.575 177.748 106.047 179.111 101.8 179.195V149.765Z" fill="#333333"/>
<path d="M101.8 0.00488281C106.047 0.0947911 109.575 1.54408 112.384 4.35254C115.456 7.0832 116.992 10.6672 116.992 15.1045C116.992 19.371 115.456 22.87 112.384 25.6006C109.575 28.0785 106.047 29.3562 101.8 29.4355V0.00488281Z" fill="#333333"/>
</svg>
