<svg xmlns="http://www.w3.org/2000/svg" aria-hidden="true" class="" fill="none" viewBox="0 0 188 42"><path d="M.125 21.21v20.257h30.858V30.656l-4.619-4.618c-2.54-2.54-4.618-4.702-4.618-4.828 0-.126 2.079-2.288 4.619-4.828l4.618-4.618V.953H.125V21.21ZM81.781 21.042c-3.022 6.213-5.562 11.42-5.604 11.545-.084.21.42.273 2.078.273h2.204l3.442-7.347c1.89-4.03 3.485-7.347 3.548-7.347.063 0 1.616 3.212 3.464 7.158 1.847 3.926 3.442 7.221 3.547 7.326.336.336 4.387.273 4.261-.063C98.323 31.58 87.554 9.77 87.45 9.77c-.084 0-2.624 5.08-5.668 11.272ZM146.015 10.483c-4.241 1.176-7.368 4.513-8.292 8.859-.378 1.826-.378 2.75 0 4.597.483 2.309 1.427 3.967 3.233 5.772 2.372 2.372 4.786 3.359 8.102 3.359 1.785 0 3.17-.294 4.786-1.008l.987-.44v-2.31c0-1.28-.042-2.33-.084-2.33s-.567.336-1.176.735c-2.393 1.617-5.52 1.826-7.934.525-1.596-.84-2.813-2.183-3.359-3.652-1.469-3.926 0-7.998 3.506-9.72 1.049-.524 1.406-.587 3.379-.587 2.351 0 3.065.23 4.765 1.49.357.273.714.504.777.504.063 0 .126-1.029.126-2.31V11.66l-.84-.42c-1.973-1.008-5.772-1.364-7.976-.756ZM49.245 21.65v11.252l4.786-.084c4.303-.084 4.912-.147 6.192-.588 1.638-.566 3.107-1.721 3.758-3.001.546-1.092.735-3.191.378-4.45-.357-1.24-1.638-2.688-2.96-3.317l-1.07-.504.734-.44c2.582-1.617 2.918-5.71.63-8.061-1.533-1.575-3.61-2.058-8.921-2.058h-3.527v11.252Zm8.522-7.178c.882.524 1.344 1.364 1.344 2.435 0 1.973-1.365 2.939-4.156 2.939h-1.722v-5.92l1.953.084c1.385.063 2.12.189 2.581.462Zm.714 8.984c2.393 1.218 2.498 3.946.21 5.29-.588.357-1.197.462-3.086.525l-2.372.063v-6.34h2.162c1.827 0 2.31.084 3.086.462ZM107.811 12.184v1.784H114.948V32.88l2.057-.063 2.036-.063.063-9.383.042-9.404 3.526-.042 3.506-.063v-3.359l-9.173-.063-9.194-.042v1.785ZM169.42 10.651c-.063.147-.084 5.185-.063 11.189l.063 10.915 2.057.063 2.036.063v-9.677h10.286l.042 4.765.063 4.786 2.057.063 2.036.063V10.4h-4.198v9.236h-10.286v-9.237h-1.994c-1.406 0-2.036.084-2.099.252Z" fill="currentColor"></path></svg>