<svg width="94" height="32" viewBox="0 0 94 32" fill="none" xmlns="http://www.w3.org/2000/svg">
<path d="M8.4831 12.928C8.4831 12.928 0.669545 9.98097 0.473299 5.83259C0.277053 1.68422 4.51778 0.674954 4.51778 0.674954C3.97486 1.09627 3.5415 1.64225 3.25443 2.26664C2.96736 2.89102 2.83503 3.57541 2.86865 4.2618C3.0649 6.51121 11.8564 10.1558 11.8564 10.1558C11.8564 10.1558 17.4708 12.0523 19.9445 15.2738C22.4182 18.4954 17.1567 21.4391 17.1567 21.4391C21.2036 18.3758 8.4831 12.928 8.4831 12.928ZM0 17.8217C0.150895 14.098 3.38071 14.5194 3.38071 14.5194C3.38071 14.5194 6.30873 14.2275 6.65257 17.8217C6.99642 21.416 8.71398 21.4069 8.71398 21.4069H3.31557C2.85051 21.4078 0.0758598 21.2635 0 17.8217ZM17.4395 7.00595C17.4395 7.00595 14.5115 7.29784 14.1676 3.70357C13.8238 0.109304 12.1021 0.11755 12.1021 0.11755H17.4395C17.4395 0.11755 20.7378 -0.0547842 20.8202 3.70275C20.6965 6.73961 18.5255 7.01914 17.7281 7.01914C17.6317 7.02035 17.5354 7.01595 17.4395 7.00595Z" fill="black"/>
<path d="M26.3571 1.78562C25.7238 2.02227 35.8899 -2.34791 42.7296 1.78562C50.5819 6.7429 47.3628 14.0716 47.3628 14.0716C47.3628 14.0716 44.3259 21.6461 36.9247 21.5455C29.5234 21.4449 26.1039 15.7991 26.0528 12.1191C26.0017 8.43903 27.8561 5.03689 29.7254 5.94639C31.1824 6.55739 29.4228 8.95027 29.4228 8.95027C29.4228 8.95027 28.3781 10.742 29.2167 13.9463C30.2754 17.3674 33.4401 18.7485 37.2974 18.7287C39.3639 18.6466 41.3203 17.7753 42.7637 16.2941C44.2072 14.813 45.0277 12.8348 45.0565 10.7668C44.9864 6.31415 41.4012 2.3818 35.1519 2.01487C28.9025 1.64794 26.9903 1.54898 26.3571 1.78562Z" fill="black"/>
<path d="M60.0416 0.118343H54.7042C54.7042 0.118343 51.4059 -0.0539971 51.3235 3.70354C51.4744 7.42726 54.7042 7.00591 54.7042 7.00591C54.7042 7.00591 57.6322 7.29781 57.9761 3.70354C58.3199 0.109266 60.0416 0.118343 60.0416 0.118343Z" fill="black"/>
<path d="M64.4673 21.8489H69.8047C69.8047 21.8489 73.1029 22.0213 73.1854 18.2637C73.0345 14.54 69.8047 14.9613 69.8047 14.9613C69.8047 14.9613 66.8767 14.6694 66.5328 18.2637C66.189 21.858 64.4673 21.8489 64.4673 21.8489Z" fill="black"/>
<path d="M67.5595 0.573486H72.7139L57.8313 21.3467H52.677L67.5595 0.573486Z" fill="black"/>
<path d="M84.2513 21.5834V11.9558L77.7183 1.16806H81.8015L88.4376 11.9558V21.5834H84.2513ZM89.6621 1.16806H94.0001L91.7037 3.94024L89.6621 1.16806Z" fill="black"/>
<mask id="path-7-outside-1_2447_171" maskUnits="userSpaceOnUse" x="15.3511" y="26.292" width="66" height="6" fill="black">
<rect fill="white" x="15.3511" y="26.292" width="66" height="6"/>
<path d="M17.8889 31.333C18.9501 31.333 19.444 30.8144 19.444 30.2108C19.444 28.762 17.0115 29.3648 17.0115 28.3967C17.0115 28.0529 17.3043 27.7709 17.987 27.7709C18.3769 27.7738 18.7584 27.8851 19.0886 28.0925L19.2783 27.6414C18.8892 27.4057 18.441 27.2859 17.9862 27.296C16.9307 27.296 16.4484 27.8146 16.4484 28.424C16.4484 29.89 18.8808 29.2807 18.8808 30.2454C18.8808 30.5893 18.5823 30.8548 17.8914 30.8548C17.409 30.8601 16.9397 30.6984 16.563 30.3971L16.3511 30.8366C16.7913 31.1741 17.3344 31.3494 17.8889 31.333ZM24.6759 31.333C24.95 31.3479 25.2243 31.3068 25.482 31.212C25.7397 31.1173 25.9754 30.971 26.1746 30.782C26.3738 30.5931 26.5324 30.3655 26.6406 30.1131C26.7489 29.8608 26.8045 29.589 26.8041 29.3145C26.8045 29.0399 26.7489 28.7682 26.6406 28.5158C26.5324 28.2635 26.3738 28.0359 26.1746 27.847C25.9754 27.658 25.7397 27.5117 25.482 27.4169C25.2243 27.3222 24.95 27.281 24.6759 27.296C24.4007 27.2798 24.125 27.32 23.8659 27.4141C23.6068 27.5082 23.3696 27.6542 23.1689 27.8432C22.9682 28.0321 22.8082 28.2601 22.6986 28.5131C22.5891 28.7661 22.5324 29.0388 22.532 29.3145C22.5324 29.5902 22.5891 29.8629 22.6986 30.1159C22.8082 30.3689 22.9682 30.5968 23.1689 30.7858C23.3696 30.9748 23.6068 31.1208 23.8659 31.2149C24.125 31.309 24.4007 31.3492 24.6759 31.333ZM24.6759 30.8309C24.4718 30.8402 24.268 30.8077 24.077 30.7354C23.886 30.6631 23.7117 30.5526 23.565 30.4105C23.4183 30.2684 23.3022 30.0978 23.2238 29.9092C23.1454 29.7205 23.1064 29.5179 23.1092 29.3137C23.1064 29.1094 23.1454 28.9068 23.2238 28.7182C23.3022 28.5295 23.4183 28.359 23.565 28.2169C23.7117 28.0748 23.886 27.9642 24.077 27.8919C24.268 27.8196 24.4718 27.7871 24.6759 27.7965C24.8791 27.7883 25.0818 27.8216 25.2717 27.8944C25.4616 27.9673 25.6346 28.0781 25.7802 28.2201C25.9258 28.3622 26.0408 28.5324 26.1183 28.7204C26.1958 28.9084 26.2342 29.1103 26.231 29.3137C26.2343 29.5171 26.196 29.719 26.1186 29.9072C26.0411 30.0953 25.9261 30.2656 25.7805 30.4077C25.6349 30.5498 25.4618 30.6607 25.2719 30.7336C25.082 30.8065 24.8791 30.8399 24.6759 30.8317V30.8309ZM33.1004 27.8319V27.3421H30.2639V31.2885H30.8411V29.6921H32.8531V29.2073H30.8378V27.8319H33.1004ZM37.3156 31.2885H37.8829V27.8319H39.2599V27.3421H35.9386V27.8327H37.3156V31.2885ZM48.9419 29.0952H47.9005V28.0801H47.419V29.0952H46.3759V29.5404H47.4198V30.5497H47.9013V29.5404H48.9452L48.9419 29.0952ZM58.4343 31.333C58.719 31.3441 59.0029 31.2946 59.267 31.1877C59.5311 31.0808 59.7695 30.919 59.9663 30.7129L59.5936 30.3576C59.4489 30.5113 59.2735 30.6329 59.0787 30.7144C58.884 30.796 58.6742 30.8356 58.4632 30.8309C58.2585 30.8407 58.0539 30.8087 57.8621 30.7368C57.6702 30.6648 57.495 30.5544 57.3473 30.4123C57.1997 30.2703 57.0825 30.0996 57.0032 29.9106C56.9238 29.7217 56.8838 29.5186 56.8858 29.3137C56.8838 29.1087 56.9238 28.9056 57.0032 28.7167C57.0825 28.5278 57.1997 28.357 57.3473 28.215C57.495 28.0729 57.6702 27.9625 57.8621 27.8906C58.0539 27.8186 58.2585 27.7866 58.4632 27.7965C58.6739 27.7907 58.8835 27.8295 59.0783 27.9102C59.2731 27.9909 59.4487 28.1117 59.5936 28.2648L59.9663 27.9094C59.77 27.7048 59.5323 27.5442 59.2692 27.4383C59.0061 27.3324 58.7235 27.2836 58.4401 27.2951C58.1658 27.2797 57.8913 27.3206 57.6334 27.4151C57.3754 27.5097 57.1396 27.656 56.9403 27.845C56.741 28.0341 56.5824 28.2619 56.4743 28.5144C56.3663 28.767 56.311 29.039 56.3119 29.3137C56.3107 29.588 56.3656 29.8597 56.4731 30.112C56.5807 30.3644 56.7387 30.5921 56.9375 30.7812C57.1362 30.9703 57.3715 31.1168 57.6289 31.2117C57.8863 31.3065 58.1604 31.3478 58.4343 31.333ZM65.0951 31.333C65.3693 31.3479 65.6436 31.3068 65.9013 31.212C66.159 31.1173 66.3947 30.971 66.5939 30.782C66.7931 30.5931 66.9516 30.3655 67.0599 30.1131C67.1681 29.8608 67.2237 29.589 67.2233 29.3145C67.2237 29.0398 67.1681 28.7679 67.0597 28.5154C66.9514 28.263 66.7927 28.0353 66.5933 27.8463C66.3939 27.6574 66.158 27.5111 65.9001 27.4164C65.6423 27.3218 65.3678 27.2808 65.0935 27.296C64.8183 27.2798 64.5426 27.32 64.2835 27.4141C64.0244 27.5082 63.7872 27.6542 63.5865 27.8432C63.3858 28.0321 63.2258 28.2601 63.1162 28.5131C63.0067 28.7661 62.95 29.0388 62.9496 29.3145C62.95 29.5902 63.0067 29.8629 63.1162 30.1159C63.2258 30.3689 63.3858 30.5968 63.5865 30.7858C63.7872 30.9748 64.0244 31.1208 64.2835 31.2149C64.5426 31.309 64.8183 31.3492 65.0935 31.333H65.0951ZM65.0951 30.8309C64.8911 30.8402 64.6873 30.8077 64.4962 30.7354C64.3052 30.6631 64.131 30.5526 63.9843 30.4105C63.8375 30.2684 63.7214 30.0978 63.643 29.9092C63.5646 29.7205 63.5256 29.5179 63.5284 29.3137C63.5256 29.1094 63.5646 28.9068 63.643 28.7182C63.7214 28.5295 63.8375 28.359 63.9843 28.2169C64.131 28.0748 64.3052 27.9642 64.4962 27.8919C64.6873 27.8196 64.8911 27.7871 65.0951 27.7965C65.2983 27.7883 65.5011 27.8216 65.691 27.8944C65.8808 27.9673 66.0539 28.0781 66.1994 28.2201C66.345 28.3622 66.4601 28.5324 66.5376 28.7204C66.6151 28.9084 66.6534 29.1103 66.6502 29.3137C66.6536 29.5172 66.6153 29.7193 66.5377 29.9076C66.4601 30.0958 66.3449 30.2662 66.1992 30.4084C66.0534 30.5505 65.8801 30.6614 65.69 30.7341C65.4999 30.8069 65.2969 30.8401 65.0935 30.8317L65.0951 30.8309ZM71.0501 30.797L73.5634 27.7239V27.3421H70.322V27.8327H72.8064L70.2816 30.9051V31.2885H73.6376V30.7979L71.0501 30.797ZM80.1203 27.3405H79.5522L78.2626 29.4217L76.9771 27.3421H76.3628L77.9566 29.9123V31.2885H78.5248V29.9238L80.1203 27.3405Z"/>
</mask>
<path d="M17.8889 31.333C18.9501 31.333 19.444 30.8144 19.444 30.2108C19.444 28.762 17.0115 29.3648 17.0115 28.3967C17.0115 28.0529 17.3043 27.7709 17.987 27.7709C18.3769 27.7738 18.7584 27.8851 19.0886 28.0925L19.2783 27.6414C18.8892 27.4057 18.441 27.2859 17.9862 27.296C16.9307 27.296 16.4484 27.8146 16.4484 28.424C16.4484 29.89 18.8808 29.2807 18.8808 30.2454C18.8808 30.5893 18.5823 30.8548 17.8914 30.8548C17.409 30.8601 16.9397 30.6984 16.563 30.3971L16.3511 30.8366C16.7913 31.1741 17.3344 31.3494 17.8889 31.333ZM24.6759 31.333C24.95 31.3479 25.2243 31.3068 25.482 31.212C25.7397 31.1173 25.9754 30.971 26.1746 30.782C26.3738 30.5931 26.5324 30.3655 26.6406 30.1131C26.7489 29.8608 26.8045 29.589 26.8041 29.3145C26.8045 29.0399 26.7489 28.7682 26.6406 28.5158C26.5324 28.2635 26.3738 28.0359 26.1746 27.847C25.9754 27.658 25.7397 27.5117 25.482 27.4169C25.2243 27.3222 24.95 27.281 24.6759 27.296C24.4007 27.2798 24.125 27.32 23.8659 27.4141C23.6068 27.5082 23.3696 27.6542 23.1689 27.8432C22.9682 28.0321 22.8082 28.2601 22.6986 28.5131C22.5891 28.7661 22.5324 29.0388 22.532 29.3145C22.5324 29.5902 22.5891 29.8629 22.6986 30.1159C22.8082 30.3689 22.9682 30.5968 23.1689 30.7858C23.3696 30.9748 23.6068 31.1208 23.8659 31.2149C24.125 31.309 24.4007 31.3492 24.6759 31.333ZM24.6759 30.8309C24.4718 30.8402 24.268 30.8077 24.077 30.7354C23.886 30.6631 23.7117 30.5526 23.565 30.4105C23.4183 30.2684 23.3022 30.0978 23.2238 29.9092C23.1454 29.7205 23.1064 29.5179 23.1092 29.3137C23.1064 29.1094 23.1454 28.9068 23.2238 28.7182C23.3022 28.5295 23.4183 28.359 23.565 28.2169C23.7117 28.0748 23.886 27.9642 24.077 27.8919C24.268 27.8196 24.4718 27.7871 24.6759 27.7965C24.8791 27.7883 25.0818 27.8216 25.2717 27.8944C25.4616 27.9673 25.6346 28.0781 25.7802 28.2201C25.9258 28.3622 26.0408 28.5324 26.1183 28.7204C26.1958 28.9084 26.2342 29.1103 26.231 29.3137C26.2343 29.5171 26.196 29.719 26.1186 29.9072C26.0411 30.0953 25.9261 30.2656 25.7805 30.4077C25.6349 30.5498 25.4618 30.6607 25.2719 30.7336C25.082 30.8065 24.8791 30.8399 24.6759 30.8317V30.8309ZM33.1004 27.8319V27.3421H30.2639V31.2885H30.8411V29.6921H32.8531V29.2073H30.8378V27.8319H33.1004ZM37.3156 31.2885H37.8829V27.8319H39.2599V27.3421H35.9386V27.8327H37.3156V31.2885ZM48.9419 29.0952H47.9005V28.0801H47.419V29.0952H46.3759V29.5404H47.4198V30.5497H47.9013V29.5404H48.9452L48.9419 29.0952ZM58.4343 31.333C58.719 31.3441 59.0029 31.2946 59.267 31.1877C59.5311 31.0808 59.7695 30.919 59.9663 30.7129L59.5936 30.3576C59.4489 30.5113 59.2735 30.6329 59.0787 30.7144C58.884 30.796 58.6742 30.8356 58.4632 30.8309C58.2585 30.8407 58.0539 30.8087 57.8621 30.7368C57.6702 30.6648 57.495 30.5544 57.3473 30.4123C57.1997 30.2703 57.0825 30.0996 57.0032 29.9106C56.9238 29.7217 56.8838 29.5186 56.8858 29.3137C56.8838 29.1087 56.9238 28.9056 57.0032 28.7167C57.0825 28.5278 57.1997 28.357 57.3473 28.215C57.495 28.0729 57.6702 27.9625 57.8621 27.8906C58.0539 27.8186 58.2585 27.7866 58.4632 27.7965C58.6739 27.7907 58.8835 27.8295 59.0783 27.9102C59.2731 27.9909 59.4487 28.1117 59.5936 28.2648L59.9663 27.9094C59.77 27.7048 59.5323 27.5442 59.2692 27.4383C59.0061 27.3324 58.7235 27.2836 58.4401 27.2951C58.1658 27.2797 57.8913 27.3206 57.6334 27.4151C57.3754 27.5097 57.1396 27.656 56.9403 27.845C56.741 28.0341 56.5824 28.2619 56.4743 28.5144C56.3663 28.767 56.311 29.039 56.3119 29.3137C56.3107 29.588 56.3656 29.8597 56.4731 30.112C56.5807 30.3644 56.7387 30.5921 56.9375 30.7812C57.1362 30.9703 57.3715 31.1168 57.6289 31.2117C57.8863 31.3065 58.1604 31.3478 58.4343 31.333ZM65.0951 31.333C65.3693 31.3479 65.6436 31.3068 65.9013 31.212C66.159 31.1173 66.3947 30.971 66.5939 30.782C66.7931 30.5931 66.9516 30.3655 67.0599 30.1131C67.1681 29.8608 67.2237 29.589 67.2233 29.3145C67.2237 29.0398 67.1681 28.7679 67.0597 28.5154C66.9514 28.263 66.7927 28.0353 66.5933 27.8463C66.3939 27.6574 66.158 27.5111 65.9001 27.4164C65.6423 27.3218 65.3678 27.2808 65.0935 27.296C64.8183 27.2798 64.5426 27.32 64.2835 27.4141C64.0244 27.5082 63.7872 27.6542 63.5865 27.8432C63.3858 28.0321 63.2258 28.2601 63.1162 28.5131C63.0067 28.7661 62.95 29.0388 62.9496 29.3145C62.95 29.5902 63.0067 29.8629 63.1162 30.1159C63.2258 30.3689 63.3858 30.5968 63.5865 30.7858C63.7872 30.9748 64.0244 31.1208 64.2835 31.2149C64.5426 31.309 64.8183 31.3492 65.0935 31.333H65.0951ZM65.0951 30.8309C64.8911 30.8402 64.6873 30.8077 64.4962 30.7354C64.3052 30.6631 64.131 30.5526 63.9843 30.4105C63.8375 30.2684 63.7214 30.0978 63.643 29.9092C63.5646 29.7205 63.5256 29.5179 63.5284 29.3137C63.5256 29.1094 63.5646 28.9068 63.643 28.7182C63.7214 28.5295 63.8375 28.359 63.9843 28.2169C64.131 28.0748 64.3052 27.9642 64.4962 27.8919C64.6873 27.8196 64.8911 27.7871 65.0951 27.7965C65.2983 27.7883 65.5011 27.8216 65.691 27.8944C65.8808 27.9673 66.0539 28.0781 66.1994 28.2201C66.345 28.3622 66.4601 28.5324 66.5376 28.7204C66.6151 28.9084 66.6534 29.1103 66.6502 29.3137C66.6536 29.5172 66.6153 29.7193 66.5377 29.9076C66.4601 30.0958 66.3449 30.2662 66.1992 30.4084C66.0534 30.5505 65.8801 30.6614 65.69 30.7341C65.4999 30.8069 65.2969 30.8401 65.0935 30.8317L65.0951 30.8309ZM71.0501 30.797L73.5634 27.7239V27.3421H70.322V27.8327H72.8064L70.2816 30.9051V31.2885H73.6376V30.7979L71.0501 30.797ZM80.1203 27.3405H79.5522L78.2626 29.4217L76.9771 27.3421H76.3628L77.9566 29.9123V31.2885H78.5248V29.9238L80.1203 27.3405Z" fill="black"/>
<path d="M17.8889 31.333C18.9501 31.333 19.444 30.8144 19.444 30.2108C19.444 28.762 17.0115 29.3648 17.0115 28.3967C17.0115 28.0529 17.3043 27.7709 17.987 27.7709C18.3769 27.7738 18.7584 27.8851 19.0886 28.0925L19.2783 27.6414C18.8892 27.4057 18.441 27.2859 17.9862 27.296C16.9307 27.296 16.4484 27.8146 16.4484 28.424C16.4484 29.89 18.8808 29.2807 18.8808 30.2454C18.8808 30.5893 18.5823 30.8548 17.8914 30.8548C17.409 30.8601 16.9397 30.6984 16.563 30.3971L16.3511 30.8366C16.7913 31.1741 17.3344 31.3494 17.8889 31.333ZM24.6759 31.333C24.95 31.3479 25.2243 31.3068 25.482 31.212C25.7397 31.1173 25.9754 30.971 26.1746 30.782C26.3738 30.5931 26.5324 30.3655 26.6406 30.1131C26.7489 29.8608 26.8045 29.589 26.8041 29.3145C26.8045 29.0399 26.7489 28.7682 26.6406 28.5158C26.5324 28.2635 26.3738 28.0359 26.1746 27.847C25.9754 27.658 25.7397 27.5117 25.482 27.4169C25.2243 27.3222 24.95 27.281 24.6759 27.296C24.4007 27.2798 24.125 27.32 23.8659 27.4141C23.6068 27.5082 23.3696 27.6542 23.1689 27.8432C22.9682 28.0321 22.8082 28.2601 22.6986 28.5131C22.5891 28.7661 22.5324 29.0388 22.532 29.3145C22.5324 29.5902 22.5891 29.8629 22.6986 30.1159C22.8082 30.3689 22.9682 30.5968 23.1689 30.7858C23.3696 30.9748 23.6068 31.1208 23.8659 31.2149C24.125 31.309 24.4007 31.3492 24.6759 31.333ZM24.6759 30.8309C24.4718 30.8402 24.268 30.8077 24.077 30.7354C23.886 30.6631 23.7117 30.5526 23.565 30.4105C23.4183 30.2684 23.3022 30.0978 23.2238 29.9092C23.1454 29.7205 23.1064 29.5179 23.1092 29.3137C23.1064 29.1094 23.1454 28.9068 23.2238 28.7182C23.3022 28.5295 23.4183 28.359 23.565 28.2169C23.7117 28.0748 23.886 27.9642 24.077 27.8919C24.268 27.8196 24.4718 27.7871 24.6759 27.7965C24.8791 27.7883 25.0818 27.8216 25.2717 27.8944C25.4616 27.9673 25.6346 28.0781 25.7802 28.2201C25.9258 28.3622 26.0408 28.5324 26.1183 28.7204C26.1958 28.9084 26.2342 29.1103 26.231 29.3137C26.2343 29.5171 26.196 29.719 26.1186 29.9072C26.0411 30.0953 25.9261 30.2656 25.7805 30.4077C25.6349 30.5498 25.4618 30.6607 25.2719 30.7336C25.082 30.8065 24.8791 30.8399 24.6759 30.8317V30.8309ZM33.1004 27.8319V27.3421H30.2639V31.2885H30.8411V29.6921H32.8531V29.2073H30.8378V27.8319H33.1004ZM37.3156 31.2885H37.8829V27.8319H39.2599V27.3421H35.9386V27.8327H37.3156V31.2885ZM48.9419 29.0952H47.9005V28.0801H47.419V29.0952H46.3759V29.5404H47.4198V30.5497H47.9013V29.5404H48.9452L48.9419 29.0952ZM58.4343 31.333C58.719 31.3441 59.0029 31.2946 59.267 31.1877C59.5311 31.0808 59.7695 30.919 59.9663 30.7129L59.5936 30.3576C59.4489 30.5113 59.2735 30.6329 59.0787 30.7144C58.884 30.796 58.6742 30.8356 58.4632 30.8309C58.2585 30.8407 58.0539 30.8087 57.8621 30.7368C57.6702 30.6648 57.495 30.5544 57.3473 30.4123C57.1997 30.2703 57.0825 30.0996 57.0032 29.9106C56.9238 29.7217 56.8838 29.5186 56.8858 29.3137C56.8838 29.1087 56.9238 28.9056 57.0032 28.7167C57.0825 28.5278 57.1997 28.357 57.3473 28.215C57.495 28.0729 57.6702 27.9625 57.8621 27.8906C58.0539 27.8186 58.2585 27.7866 58.4632 27.7965C58.6739 27.7907 58.8835 27.8295 59.0783 27.9102C59.2731 27.9909 59.4487 28.1117 59.5936 28.2648L59.9663 27.9094C59.77 27.7048 59.5323 27.5442 59.2692 27.4383C59.0061 27.3324 58.7235 27.2836 58.4401 27.2951C58.1658 27.2797 57.8913 27.3206 57.6334 27.4151C57.3754 27.5097 57.1396 27.656 56.9403 27.845C56.741 28.0341 56.5824 28.2619 56.4743 28.5144C56.3663 28.767 56.311 29.039 56.3119 29.3137C56.3107 29.588 56.3656 29.8597 56.4731 30.112C56.5807 30.3644 56.7387 30.5921 56.9375 30.7812C57.1362 30.9703 57.3715 31.1168 57.6289 31.2117C57.8863 31.3065 58.1604 31.3478 58.4343 31.333ZM65.0951 31.333C65.3693 31.3479 65.6436 31.3068 65.9013 31.212C66.159 31.1173 66.3947 30.971 66.5939 30.782C66.7931 30.5931 66.9516 30.3655 67.0599 30.1131C67.1681 29.8608 67.2237 29.589 67.2233 29.3145C67.2237 29.0398 67.1681 28.7679 67.0597 28.5154C66.9514 28.263 66.7927 28.0353 66.5933 27.8463C66.3939 27.6574 66.158 27.5111 65.9001 27.4164C65.6423 27.3218 65.3678 27.2808 65.0935 27.296C64.8183 27.2798 64.5426 27.32 64.2835 27.4141C64.0244 27.5082 63.7872 27.6542 63.5865 27.8432C63.3858 28.0321 63.2258 28.2601 63.1162 28.5131C63.0067 28.7661 62.95 29.0388 62.9496 29.3145C62.95 29.5902 63.0067 29.8629 63.1162 30.1159C63.2258 30.3689 63.3858 30.5968 63.5865 30.7858C63.7872 30.9748 64.0244 31.1208 64.2835 31.2149C64.5426 31.309 64.8183 31.3492 65.0935 31.333H65.0951ZM65.0951 30.8309C64.8911 30.8402 64.6873 30.8077 64.4962 30.7354C64.3052 30.6631 64.131 30.5526 63.9843 30.4105C63.8375 30.2684 63.7214 30.0978 63.643 29.9092C63.5646 29.7205 63.5256 29.5179 63.5284 29.3137C63.5256 29.1094 63.5646 28.9068 63.643 28.7182C63.7214 28.5295 63.8375 28.359 63.9843 28.2169C64.131 28.0748 64.3052 27.9642 64.4962 27.8919C64.6873 27.8196 64.8911 27.7871 65.0951 27.7965C65.2983 27.7883 65.5011 27.8216 65.691 27.8944C65.8808 27.9673 66.0539 28.0781 66.1994 28.2201C66.345 28.3622 66.4601 28.5324 66.5376 28.7204C66.6151 28.9084 66.6534 29.1103 66.6502 29.3137C66.6536 29.5172 66.6153 29.7193 66.5377 29.9076C66.4601 30.0958 66.3449 30.2662 66.1992 30.4084C66.0534 30.5505 65.8801 30.6614 65.69 30.7341C65.4999 30.8069 65.2969 30.8401 65.0935 30.8317L65.0951 30.8309ZM71.0501 30.797L73.5634 27.7239V27.3421H70.322V27.8327H72.8064L70.2816 30.9051V31.2885H73.6376V30.7979L71.0501 30.797ZM80.1203 27.3405H79.5522L78.2626 29.4217L76.9771 27.3421H76.3628L77.9566 29.9123V31.2885H78.5248V29.9238L80.1203 27.3405Z" stroke="black" stroke-width="0.5" mask="url(#path-7-outside-1_2447_171)"/>
</svg>
