<?xml version="1.0" encoding="utf-8"?>
<!-- Generator: Adobe Illustrator 20.1.0, SVG Export Plug-In . SVG Version: 6.00 Build 0)  -->
<svg version="1.1" id="Layer_1" xmlns="http://www.w3.org/2000/svg" xmlns:xlink="http://www.w3.org/1999/xlink" x="0px" y="0px"
	 viewBox="0 0 290.4 73.7" style="enable-background:new 0 0 290.4 73.7;" xml:space="preserve">
<style type="text/css">
	.st0{fill:#151644;}
	.st1{fill:#EE3A90;}
</style>
<g>
	<g id="Layer_2">
		<g id="Layer_1-2">
			<path class="st0" d="M16.4,63.7H14c-1.5-0.1-2.8-0.9-3.4-2.2c-0.9-1.8-1.4-3.7-1.3-5.7V4.7C9.4,3.5,8.9,2.2,8,1.3
				C7.2,0.4,5.9,0,4.7,0C3.4,0,2.2,0.4,1.3,1.3S0,3.4,0,4.7v51.1c-0.1,3.1,0.5,6.1,1.8,8.9c1.1,2.5,2.8,4.6,5,6.1
				c2.1,1.5,4.6,2.3,7.2,2.3h0.2c1.6,0.1,3.2-0.4,4.6-1.3c1.1-0.8,1.8-2,1.8-3.4c0.1-1.2-0.3-2.5-1.1-3.4
				C18.6,64.1,17.5,63.7,16.4,63.7z"/>
			<path class="st0" d="M144.7,22.5c-1.1-0.6-2.3-0.7-3.5-0.3c-1.1,0.3-2,1.1-2.6,2.1l-16.1,35.1l-16.3-35.1c-0.5-1-1.4-1.8-2.5-2.1
				c-1.1-0.4-2.2-0.3-3.2,0.3c-1.1,0.5-1.9,1.3-2.4,2.4c-0.4,1-0.4,2.2,0.1,3.1L118,69.8c1.1,2.1,2.6,3.1,4.5,3.1s3.4-1,4.3-3.1
				L146.6,28c0.5-1,0.6-2.1,0.2-3.2C146.6,23.8,145.8,23,144.7,22.5z"/>
			<path class="st0" d="M168.2,63.7h-2.3c-1.5-0.1-2.8-0.9-3.4-2.2c-0.9-1.8-1.4-3.7-1.3-5.7V4.7c0-1.3-0.4-2.5-1.3-3.4
				c-1.9-1.7-4.8-1.7-6.7,0c-0.9,0.9-1.4,2.1-1.3,3.4v51.1c-0.1,3.1,0.5,6.1,1.8,8.9c1.1,2.5,2.8,4.6,5,6.1c2.1,1.5,4.7,2.3,7.3,2.2
				h0.2c1.6,0.1,3.2-0.4,4.6-1.3c1.1-0.8,1.8-2,1.8-3.4c0-1.2-0.4-2.5-1.2-3.4C170.5,64.1,169.4,63.7,168.2,63.7z"/>
			<path class="st0" d="M183.8,21.9c-1.3,0-2.5,0.4-3.4,1.3s-1.4,2.2-1.4,3.5v41.6c0.1,2.7,2.3,4.8,5,4.8c1.2,0,2.4-0.5,3.3-1.4
				c0.9-0.9,1.3-2.2,1.3-3.4V26.7c0.2-2.5-1.7-4.6-4.2-4.8C184.2,21.9,184,21.9,183.8,21.9z"/>
			<path class="st0" d="M183.8,1.2c-1.6,0-3.2,0.6-4.4,1.8c-1.2,1.1-1.8,2.7-1.8,4.3s0.6,3.2,1.8,4.3c2.4,2.4,6.2,2.4,8.6,0.1
				l0.1-0.1c1.2-1.1,1.9-2.7,1.9-4.3c0-1.7-0.7-3.2-1.9-4.4C187,1.8,185.4,1.2,183.8,1.2z"/>
			<path class="st0" d="M233.3,24.2c-3.6-1.9-7.5-2.8-11.6-2.8c-3.9-0.1-7.7,0.9-11.1,2.7c-1.7,1-3.3,2.1-4.8,3.5v-1
				c0-2.7-2.3-4.8-4.9-4.8c-1.2,0-2.4,0.5-3.2,1.3c-0.9,0.9-1.4,2.2-1.4,3.5v41.7c0.1,2.7,2.3,4.8,5,4.8c1.2,0,2.4-0.5,3.3-1.4
				c0.9-0.9,1.3-2.1,1.3-3.4V42c0-2.2,0.6-4.3,1.9-6.1c1.3-1.8,3-3.3,5.1-4.2c2.2-1.1,4.6-1.7,7.1-1.6c2.6-0.1,5.2,0.5,7.6,1.6
				c2.2,1.1,4.1,2.8,5.3,5c1.4,2.7,2.1,5.7,2,8.7v23c-0.1,2.6,1.9,4.9,4.6,5c2.6,0.1,4.9-1.9,5-4.6c0-0.1,0-0.3,0-0.4v-23
				c0.1-4.6-0.9-9.1-3-13.1C239.5,28.8,236.7,26,233.3,24.2z"/>
			<path class="st0" d="M289.3,66.3L271.2,44l17.2-15.3c0.9-0.8,1.4-1.8,1.5-3c0-1.2-0.4-2.3-1.2-3.1c-1.4-1.8-4-2-5.8-0.6
				c-0.1,0.1-0.2,0.2-0.3,0.3l-22.7,20.3v-38c0.1-1.2-0.4-2.4-1.3-3.3c-1.9-1.7-4.7-1.7-6.6,0c-0.9,0.9-1.3,2.1-1.3,3.3v63.9
				c-0.1,2.5,1.8,4.7,4.4,4.8c2.5,0.1,4.7-1.8,4.8-4.4c0-0.1,0-0.3,0-0.4V54.2l4.6-4.2l17.8,22c0.7,0.9,1.8,1.5,3,1.6
				s2.4-0.3,3.3-1.1c1.9-1.4,2.3-4,0.9-5.9C289.5,66.5,289.4,66.4,289.3,66.3L289.3,66.3z"/>
			<g id="Layer_2-2">
				<g id="Layer_1-2-2">
					<path class="st1" d="M84.5,22c3.6,0,6.6,2.9,6.6,6.5v0.1c-0.1,3.5-2.9,6.4-6.4,6.6c-3.6,0.1-6.7-2.8-6.7-6.5l0,0v-0.1
						C78,25,80.9,22,84.5,22L84.5,22L84.5,22z M31.1,22c3.6,0,6.6,3,6.6,6.6s-3,6.6-6.6,6.6s-6.6-3-6.6-6.6S27.5,22,31.1,22L31.1,22
						z"/>
				</g>
			</g>
		</g>
	</g>
	<path class="st1" d="M84.1,42.7c-1.9,0-3.7,1.4-4,3.3c-1.5,9-8.6,17-17.5,18.9c-7.6,1.6-15.5-0.8-21-6.3c-3.3-3.4-5.5-7.8-6.2-12.5
		c-0.3-2-2-3.4-4-3.4l0,0c-2.5,0-4.3,2.2-4,4.7c0.3,1.9,0.8,3.7,1.4,5.5c3.3,9.3,10.9,16.6,20.3,19.5c8.6,2.5,17.9,1.1,25.4-3.8
		c7.3-5,12.2-12.7,13.5-21.3C88.5,44.9,86.6,42.7,84.1,42.7L84.1,42.7z"/>
</g>
</svg>
