<svg version="1.1" id="Layer_1" xmlns:x="ns_extend;" xmlns:i="ns_ai;" xmlns:graph="ns_graphs;" xmlns="http://www.w3.org/2000/svg" xmlns:xlink="http://www.w3.org/1999/xlink" x="0px" y="0px" viewBox="0 0 852 267" style="enable-background:new 0 0 852 267;" xml:space="preserve">
 <style type="text/css">
  .st0{fill:#5724E9;}
	.st1{fill:#FFFFFF;}
 </style>
 <metadata>
  <sfw xmlns="ns_sfw;">
   <slices>
   </slices>
   <sliceSourceBounds bottomLeftOrigin="true" height="267" width="852" x="0" y="0">
   </sliceSourceBounds>
  </sfw>
 </metadata>
 <g>
  <path class="st0" d="M0,246C0,130,0,72.1,36,36c36-36,94-36,210-36h472.5C792.2,0,852,59.8,852,133.5S792.2,267,718.5,267H0V246z">
  </path>
  <path class="st1" d="M74,82h40.8c24.2,0,38.7,11.4,38.7,34.3c0,21-11.8,33.4-36.6,33.4H97.6v27.1H74V82z M115.9,133.8
		c9.9,0,15.4-5.3,15.4-16.4c0-10.8-6-16.8-17.3-16.8H97.6v33.3H115.9z">
  </path>
  <path class="st1" d="M156.1,141.3c0-23.2,15.3-36.9,38.7-36.9s38.7,13.7,38.7,36.9c0,23-15.3,36.6-38.7,36.6
		S156.1,164.3,156.1,141.3z M211.7,141.3c0-12.7-6.2-20.2-16.8-20.2c-10.7,0-16.9,7.5-16.9,20.2c0,12.5,6.2,19.9,16.9,19.9
		C205.5,161.2,211.7,153.8,211.7,141.3z">
  </path>
  <path class="st1" d="M238.9,152.8h19.6c0,6.6,3.3,10.9,15.8,10.9c11.4,0,15.4-3.3,15.4-8.5c0-2.6-1.3-4.6-5-5.5
		c-5.5-1-11-1.7-16.6-2c-10.2-0.9-18.1-2.4-22.5-5.5c-2.2-1.6-3.9-3.8-5.1-6.2c-1.2-2.4-1.8-5.1-1.7-7.8c0-15.4,15.8-23.9,35.6-23.9
		c23.3,0,34,8.9,34,25.5h-19.3c-0.2-7.5-3.6-11.4-14.4-11.4c-9.8,0-14.1,3.3-14.1,8.2c0,3,1.2,5.3,5.2,6.3c3.6,0.9,9.9,1.4,17.6,2.2
		c8.8,0.9,15,1.7,20.3,4.8c2.4,1.4,4.5,3.5,5.9,6c1.4,2.5,2.1,5.3,2.1,8.1c0,15-12.8,23.8-37.1,23.8
		C249.4,177.9,238.9,167.2,238.9,152.8z">
  </path>
  <path class="st1" d="M324.4,152.2v-29.7h-10.5v-17h8.5c3.3,0,4.5-1.9,4.9-6.2l1-9.9h18v16.1H369v17h-22.8v28.5
		c0,7.3,3.5,9.7,12.1,9.7c3.3,0,6.7-0.4,9.9-1v16.5c-4.5,1-9.2,1.5-13.8,1.6C332.3,177.9,324.4,168.1,324.4,152.2z">
  </path>
  <path class="st1" d="M374.7,152.8h19.6c0,6.6,3.3,10.9,15.8,10.9c11.4,0,15.4-3.3,15.4-8.5c0-2.6-1.3-4.6-5-5.5
		c-5.5-1-11-1.7-16.6-2c-10.2-0.9-18.1-2.4-22.5-5.5c-2.2-1.6-3.9-3.8-5.1-6.2c-1.2-2.4-1.8-5.1-1.7-7.8c0-15.4,15.8-23.9,35.6-23.9
		c23.3,0,34,8.9,34,25.5H425c-0.1-7.5-3.6-11.4-14.4-11.4c-9.8,0-14.1,3.3-14.1,8.2c0,3,1.1,5.3,5.2,6.3c3.6,0.9,9.9,1.4,17.6,2.2
		c8.8,0.9,15,1.7,20.3,4.8c2.4,1.5,4.5,3.5,5.8,6c1.4,2.5,2.1,5.3,2,8.1c0,15-12.8,23.8-37.2,23.8
		C385.2,177.9,374.7,167.2,374.7,152.8z">
  </path>
  <path class="st1" d="M451,141.3c0-23.2,15.1-36.9,37-36.9c20.9,0,34.6,11.7,34.6,31.4h-19.3c-0.1-9.2-5.6-14.7-14.5-14.7
		c-10.2,0-15.8,7.1-15.8,20c0,12.5,5.8,20,15.4,20c9.4,0,15-5.3,15.1-14.4h19.3c0,20.4-14.5,31.1-35.6,31.1
		C465.8,177.9,451,164.3,451,141.3z">
  </path>
  <path class="st1" d="M531.2,105.6h21.9l-0.9,20.3h0.3c3-13.5,10.6-21.5,24.6-21.5c14.5,0,23,9.4,23,27.8c0,4-0.4,10.4-0.7,14.1
		h-19.8c0.3-3.4,0.4-7.1,0.4-9.2c0-10.4-4.2-14.5-11.1-14.5c-9.4,0-15.8,7.6-15.8,23.5v30.7h-21.9V105.6z">
  </path>
  <path class="st1" d="M630.2,105.6h-21.9v71.1h21.9V105.6z">
  </path>
  <path class="st1" d="M641.4,105.6h21.9l-0.4,14.5h0.1c2.7-9.8,11.8-15.7,24-15.7c19.9,0,32.8,14.1,32.8,35.1c0,23-13,38.3-33,38.3
		c-13,0-21-5.3-24.2-14h-0.1c0.3,4.8,0.7,11.8,0.7,14.4v27h-21.9V105.6z M698.1,140.4c0-11.5-6.6-19.3-16.6-19.3
		c-11,0-18.3,7.9-18.3,19.9v3.2c0,10.2,7.3,17,18.4,17C691.5,161.2,698.1,152.8,698.1,140.4L698.1,140.4z">
  </path>
  <path class="st1" d="M733.3,152.2v-29.7h-10.5v-17h8.5c3.3,0,4.5-1.9,4.9-6.2l1-9.9h18v16.1h22.8v17h-22.8v28.5
		c0,7.3,3.4,9.7,12.1,9.7c3.3,0,6.7-0.4,9.9-1v16.5c-4.5,1-9.2,1.5-13.8,1.6C741.2,177.9,733.3,168.1,733.3,152.2z">
  </path>
  <path class="st1" d="M632.4,89.2c0,2-0.5,9.1-12,9.1h-12v-9.1c0-5.5,4.4-9.2,12-9.2C627,80,632.4,82.7,632.4,89.2z">
  </path>
 </g>
</svg>