<svg version="1.1" id="Layer_1" xmlns:x="ns_extend;" xmlns:i="ns_ai;" xmlns:graph="ns_graphs;" xmlns="http://www.w3.org/2000/svg" xmlns:xlink="http://www.w3.org/1999/xlink" x="0px" y="0px" viewBox="0 0 229.3 70" style="enable-background:new 0 0 229.3 70;" xml:space="preserve">
 <style type="text/css">
  .st0{fill:#0375FF;}
	.st1{fill:#1D2945;}
 </style>
 <metadata>
  <sfw xmlns="ns_sfw;">
   <slices>
   </slices>
   <sliceSourceBounds bottomLeftOrigin="true" height="70" width="229.3" x="-114.6" y="0">
   </sliceSourceBounds>
  </sfw>
 </metadata>
 <g>
  <path class="st0" d="M33,0C15.6,0.1,1.1,13.8,0.1,31.2c-0.4,7.2,1.5,14.3,5.5,20.3c3.7,5.5,8.8,9.7,14.9,12.3l-2,5.1
		c-0.3,0.6,0.3,1.3,1,1.2l14.9-3.1c0.6-0.1,0.9-0.8,0.5-1.3L26.2,53c-0.4-0.6-1.2-0.5-1.5,0.2l-2,5.1c-10.4-4.3-17.1-14.7-16.8-26
		c0.5-15,13.1-26.9,28.1-26.4c15,0.5,26.9,13.1,26.4,28.1c-0.1,2.5-0.5,5-1.3,7.4L59,41.6c-0.3,1-0.7,1.9-1.1,2.9l0,0
		c-0.1,0.2-0.1,0.3-0.2,0.5L57.6,45c-0.1,0.1-0.1,0.3-0.2,0.4l-0.1,0.1c-0.1,0.1-0.1,0.2-0.2,0.3L57.1,46c0,0,0,0.1-0.1,0.1
		c-0.1,0.1-0.1,0.2-0.1,0.3l-0.1,0.1c0,0.1-0.1,0.1-0.1,0.2c0,0.1-0.1,0.1-0.1,0.2L56.5,47c0,0.1-0.1,0.1-0.1,0.2
		c0,0.1-0.1,0.1-0.1,0.2l-0.1,0.1c-0.1,0.1-0.1,0.2-0.1,0.2c0,0.1-0.1,0.1-0.1,0.1L55.9,48c-0.1,0.1-0.1,0.2-0.2,0.3
		c0,0-0.1,0.1-0.1,0.1l-0.1,0.1c-0.1,0.1-0.1,0.2-0.2,0.3L55.3,49c-0.1,0.1-0.2,0.2-0.3,0.3l-0.1,0.1c-0.1,0.1-0.2,0.2-0.3,0.4
		l-0.1,0.1c-0.1,0.1-0.2,0.3-0.3,0.4l-0.1,0.1c-0.1,0.1-0.2,0.3-0.3,0.4l-0.1,0.1c-0.1,0.1-0.2,0.3-0.3,0.4l-0.1,0.1
		c-0.1,0.1-0.2,0.3-0.4,0.4l-0.1,0.1c-0.1,0.1-0.2,0.3-0.4,0.4c-0.9,1-2,1.8-3,2.7l-9.4-13.5v-0.1V41h0c0,0,0,0,0,0v0
		c6.8-0.3,12.2-5.9,12.2-12.8c0-7.1-5.7-12.8-12.8-12.8H19.2h-2.7c-0.7,0-1.1,0.8-0.7,1.3l2.9,4.1c0.2,0.2,0.4,0.4,0.7,0.4h2.9h17.2
		c3.8,0,6.9,3.1,6.9,6.9c0,3.8-3.1,6.9-6.9,6.9H33h-2.7c-0.7,0-1.1,0.8-0.7,1.3l3.1,4.4l14.7,21.1c0.2,0.3,0.7,0.5,1.1,0.3
		c0.5-0.2,0.6-0.3,1.1-0.6l0.4-0.2c0.1,0,0.1-0.1,0.2-0.1l0.3-0.2c0.1-0.1,0.3-0.2,0.4-0.3l0.1-0.1c0.3-0.2,0.6-0.4,0.8-0.6l0.1-0.1
		c0.1-0.1,0.3-0.2,0.4-0.3l0.5-0.3c4-3,7.4-7,9.7-11.5l0,0c0.1-0.2,0.2-0.5,0.3-0.7l0,0c0.4-0.9,0.8-1.8,1.2-2.8l0.1-0.1
		c0-0.1,0.1-0.2,0.1-0.4l0.1-0.2c0-0.1,0.1-0.2,0.1-0.3c0-0.1,0.1-0.2,0.1-0.3l0-0.1c0.1-0.1,0.1-0.3,0.1-0.4c0-0.1,0.1-0.2,0.1-0.3
		l0-0.1c0.1-0.2,0.1-0.3,0.1-0.5c0-0.1,0.1-0.2,0.1-0.3c0.1-0.2,0.1-0.3,0.1-0.5c0-0.1,0.1-0.2,0.1-0.3c0.1-0.2,0.1-0.4,0.1-0.6
		l0-0.1c0-0.1,0-0.1,0.1-0.2c0.1-0.2,0.1-0.4,0.1-0.7l0-0.1c0,0,0-0.1,0-0.1l0.2-0.9h0c0.2-1.4,0.4-2.9,0.4-4.3
		C66.8,15.5,51.8-0.1,33,0z">
  </path>
  <path class="st1" d="M113.5,37v-0.8c0-7.2,5.9-13.2,13.1-13.1c8.3,0.1,12.5,6.7,12.5,14.3c0,0.3,0,0.6,0,0.9c0,0.5-0.4,0.8-0.9,0.8
		h-17.6c-0.6,0-1,0.5-0.8,1.1c1,3.6,3.8,5.6,7.4,5.6c2.7,0,4.7-0.9,6.6-2.6c0.3-0.3,0.8-0.3,1.2,0l2.3,2.1c0.4,0.3,0.4,0.9,0.1,1.2
		c-2.5,2.6-5.8,4.3-10.2,4.3C119.5,50.7,113.5,45.1,113.5,37z M132.1,35c0.5,0,1-0.5,0.9-1c-0.7-3.4-2.9-6-6.6-6
		c-3.4,0-5.8,2.4-6.7,5.9c-0.1,0.5,0.3,1.1,0.9,1.1H132.1z">
  </path>
  <path class="st1" d="M142.3,37v-0.1c0-7.5,5.8-13.9,13.8-13.9c4.6,0,7.6,1.6,10,3.9c0.3,0.3,0.4,0.9,0,1.2l-2.6,2.8
		c-0.3,0.3-0.9,0.4-1.2,0c-1.7-1.6-3.5-2.7-6.2-2.7c-4.4,0-7.7,3.8-7.7,8.4v0.1c0,4.7,3.3,8.5,7.9,8.5c2.6,0,4.5-1,6.3-2.7
		c0.3-0.3,0.9-0.3,1.2,0l2.4,2.4c0.3,0.3,0.3,0.9,0,1.2c-2.5,2.6-5.5,4.3-10.2,4.3C148.1,50.7,142.3,44.5,142.3,37z">
  </path>
  <path class="st1" d="M169.9,42.5v-0.1c0-5.7,4.5-8.5,10.9-8.5c2.7,0,4.7,0.4,6.6,0.9c0.3,0.1,0.6-0.1,0.6-0.4v-0.1
		c0-3.8-2.3-5.8-6.6-5.8c-2.6,0-4.6,0.5-6.7,1.3c-0.5,0.2-1-0.1-1.1-0.5l-1-3.1c-0.1-0.4,0.1-0.9,0.5-1.1c2.7-1.1,5.4-1.8,9.2-1.8
		c4,0,6.9,1,8.8,3c2,1.9,2.9,4.7,2.9,8.2v15.4c0,0.5-0.4,0.9-0.9,0.9h-4.2c-0.5,0-0.9-0.4-0.9-0.9v-1.9c0-0.4-0.5-0.6-0.7-0.3
		c-1.8,1.8-4.3,3.1-7.9,3.1C174.3,50.7,169.9,47.8,169.9,42.5z M188.1,40.6v-1.2c0-0.4-0.2-0.7-0.6-0.8c-1.5-0.5-3.3-0.9-5.4-0.9
		c-3.9,0-6.2,1.7-6.2,4.4v0.1c0,2.6,2.3,4,5.2,4C185,46.2,188.1,43.9,188.1,40.6z">
  </path>
  <path class="st1" d="M229.3,27.9v-3.5c0-0.5-0.4-0.9-0.9-0.9H223c-0.5,0-0.9-0.4-0.9-0.9v-6.3c0-0.5-0.4-0.9-0.9-0.9h-4.3
		c-0.5,0-0.9,0.4-0.9,0.9v7.2v5.2v14.1c0,5.8,3.2,7.8,7.6,7.8c2.1,0,3.6-0.4,5-1.1c0.3-0.1,0.5-0.5,0.5-0.8v-3.1
		c0-0.6-0.6-1-1.2-0.8c-0.8,0.3-1.7,0.4-2.6,0.4c-2.1,0-3.3-1-3.3-3.3V29.7c0-0.5,0.4-0.9,0.9-0.9h5.4
		C228.9,28.8,229.3,28.4,229.3,27.9z">
  </path>
  <path class="st1" d="M212,23.1c-3.3,0.3-5.7,2.1-7.2,4.8c-0.2,0.4-0.8,0.2-0.8-0.2v-3.2c0-0.5-0.4-0.9-0.9-0.9h-4.3
		c-0.5,0-0.9,0.4-0.9,0.9v25.4c0,0.5,0.4,0.9,0.9,0.9h4.3c0.5,0,0.9-0.4,0.9-0.9V40c0-6.6,3.3-10.1,8.2-10.5c0.5,0,0.8-0.4,0.8-0.9
		V24C212.9,23.5,212.5,23.1,212,23.1z">
  </path>
  <path class="st1" d="M110.7,49.3l-2.2-3.2l-5.7-8c-0.3-0.4-0.2-1,0.3-1.3c3.3-2,5.6-5.6,5.7-9.7c0.1-6.4-5.2-11.6-11.6-11.6H82.7
		c-0.5,0-0.9,0.4-0.9,0.9v33.4c0,0.5,0.4,0.9,0.9,0.9h4.4c0.5,0,0.9-0.4,0.9-0.9V39.3c0-0.5,0.4-0.9,0.9-0.9h6.4
		c0.3,0,0.6,0.1,0.7,0.4l8.1,11.5c0.2,0.2,0.4,0.4,0.7,0.4h5.2C110.7,50.7,111.1,49.9,110.7,49.3z M88.8,33c-0.5,0-0.9-0.4-0.9-0.9
		v-10c0-0.5,0.4-0.9,0.9-0.9h8.1c0.1,0,0.1,0,0.2,0c0,0,0.1,0,0.1,0c3.3,0,5.9,2.6,5.9,5.9s-2.6,5.9-5.9,5.9c0,0-0.1,0-0.1,0
		S97,33,97,33L88.8,33L88.8,33z">
  </path>
 </g>
</svg>